<?xml version="1.0" standalone="no"?>
<!DOCTYPE svg PUBLIC "-//W3C//DTD SVG 20010904//EN"
 "http://www.w3.org/TR/2001/REC-SVG-20010904/DTD/svg10.dtd">
<svg version="1.0" xmlns="http://www.w3.org/2000/svg"
 width="1000.000000pt" height="1000.000000pt" viewBox="0 0 1000.000000 1000.000000"
 preserveAspectRatio="xMidYMid meet">
<metadata>
Created by potrace 1.15, written by Peter Selinger 2001-2017
</metadata>
<g transform="translate(0.000000,1000.000000) scale(0.100000,-0.100000)"
fill="#000000" stroke="none">
<path d="M4485 9979 c-993 -99 -1920 -490 -2705 -1143 -304 -252 -667 -651
-901 -991 -410 -593 -696 -1297 -813 -2002 -55 -324 -61 -411 -61 -833 0 -422
7 -511 61 -835 131 -784 445 -1526 915 -2156 405 -543 827 -927 1417 -1291
342 -211 625 -343 1017 -473 404 -135 762 -208 1190 -245 177 -15 634 -12 825
5 890 78 1706 374 2446 888 360 250 617 483 921 836 650 756 1038 1629 1174
2646 21 155 23 209 24 605 0 467 -6 553 -61 870 -146 849 -516 1653 -1071
2333 -135 165 -479 512 -638 643 -824 679 -1795 1077 -2815 1154 -215 16 -715
10 -925 -11z m1005 -54 c1005 -108 1890 -477 2660 -1109 165 -135 474 -437
598 -583 608 -718 993 -1538 1136 -2423 50 -305 60 -442 60 -800 0 -426 -25
-676 -108 -1062 -224 -1040 -784 -1978 -1611 -2699 -134 -116 -433 -337 -597
-441 -939 -591 -2070 -848 -3178 -723 -952 108 -1854 490 -2587 1094 -177 147
-580 551 -706 708 -602 753 -963 1616 -1072 2563 -80 707 -6 1424 220 2107
133 404 347 840 588 1203 285 428 711 874 1157 1211 731 553 1651 895 2605
968 170 13 661 5 835 -14z"/>
<path d="M4627 9520 c-92 -24 -160 -80 -199 -165 -18 -41 -22 -67 -22 -145 1
-156 52 -253 160 -306 47 -23 68 -27 139 -26 137 0 231 56 282 168 77 168 7
386 -145 456 -49 22 -160 32 -215 18z m163 -133 c45 -29 69 -72 80 -144 21
-123 -25 -218 -118 -242 -50 -14 -86 -7 -130 26 -90 67 -108 237 -35 324 52
61 143 78 203 36z"/>
<path d="M5167 9463 c-11 -107 -40 -563 -36 -567 2 -2 32 -7 66 -11 l61 -7 6
54 c3 29 8 88 12 131 l6 79 129 -7 129 -8 0 41 c0 22 3 47 6 55 4 12 -9 16
-68 21 -196 17 -188 15 -188 44 0 15 3 44 6 65 l7 38 148 -7 149 -7 0 57 c0
31 -3 56 -7 56 -5 0 -98 7 -208 15 -110 8 -203 15 -206 15 -4 0 -9 -26 -12
-57z"/>
<path d="M3710 9336 c-117 -35 -216 -68 -218 -74 -6 -20 150 -567 167 -585 6
-6 350 85 448 118 9 3 8 17 -2 55 -8 29 -15 54 -17 55 -2 2 -73 -16 -158 -41
-85 -24 -160 -44 -166 -44 -10 0 -44 103 -44 133 0 9 49 28 142 55 78 23 143
43 144 45 9 8 -24 102 -37 105 -8 1 -75 -15 -149 -38 -102 -30 -136 -37 -142
-27 -12 18 -30 87 -26 99 2 6 70 30 152 53 81 24 150 45 153 48 7 7 -17 107
-25 106 -4 0 -104 -29 -222 -63z"/>
<path d="M5978 9093 c-47 -164 -85 -299 -84 -300 3 -3 404 -120 438 -127 25
-6 27 -3 42 46 8 29 14 54 12 55 -2 2 -75 24 -162 49 -87 25 -160 47 -162 49
-5 5 30 128 38 138 6 7 227 -48 286 -70 9 -3 51 105 42 111 -2 2 -68 21 -146
42 l-144 39 6 37 c3 20 10 48 16 62 l9 25 63 -19 c35 -10 105 -30 156 -45 52
-15 97 -23 101 -19 8 9 32 96 28 101 -5 4 -430 123 -442 123 -8 0 -44 -110
-97 -297z"/>
<path d="M6686 9163 c-29 -57 -214 -470 -227 -505 -7 -21 -10 -40 -7 -43 3 -3
29 -14 59 -24 l53 -19 73 166 c40 91 73 170 73 175 0 6 2 8 5 5 3 -3 18 -102
34 -221 16 -119 32 -220 35 -225 7 -12 115 -56 121 -50 2 2 60 130 129 284 80
180 121 283 115 290 -15 18 -100 47 -109 38 -5 -5 -43 -86 -84 -179 -42 -94
-76 -165 -76 -160 0 6 -13 107 -30 225 -16 118 -30 218 -30 221 0 7 -96 49
-111 49 -5 0 -15 -12 -23 -27z"/>
<path d="M3044 9099 c-68 -26 -138 -89 -171 -153 -36 -68 -37 -173 -4 -259 28
-71 114 -167 178 -198 60 -29 157 -29 233 0 105 40 230 165 230 229 0 33 -101
222 -119 222 -7 0 -64 -27 -127 -60 -111 -60 -113 -61 -103 -88 5 -15 18 -38
28 -51 l18 -23 61 31 61 31 16 -22 c20 -30 19 -38 -10 -78 -39 -53 -101 -90
-150 -90 -95 0 -192 109 -202 227 -5 68 15 115 66 150 50 34 102 39 148 12
l39 -22 52 39 c29 21 52 41 52 44 0 13 -56 59 -83 69 -46 18 -156 12 -213 -10z"/>
<path d="M2415 8711 c-105 -71 -189 -135 -187 -141 5 -23 337 -509 347 -510 6
0 97 58 201 129 l191 129 -13 28 c-17 38 -39 64 -52 64 -7 0 -72 -40 -145 -90
-74 -49 -136 -90 -139 -90 -12 0 -79 121 -73 131 4 6 58 44 121 84 63 41 114
79 114 85 0 15 -49 90 -58 90 -4 0 -61 -36 -126 -80 -65 -44 -122 -80 -127
-80 -9 0 -69 78 -69 90 0 4 39 33 88 65 48 32 108 74 135 93 47 34 47 34 31
61 -9 15 -24 37 -33 50 l-17 22 -189 -130z"/>
<path d="M7360 8757 c-91 -25 -184 -107 -230 -202 -32 -66 -38 -164 -15 -234
40 -120 183 -219 331 -227 l79 -5 68 100 c37 55 67 104 67 108 -1 12 -206 153
-221 153 -15 0 -59 -58 -59 -77 0 -6 19 -26 43 -44 23 -18 46 -36 51 -40 14
-12 -33 -70 -52 -65 -10 2 -34 7 -55 11 -52 8 -114 65 -128 117 -21 80 31 202
110 253 57 38 109 43 166 15 58 -28 85 -70 85 -131 l0 -46 57 -26 c36 -16 61
-23 67 -17 5 5 12 37 14 70 4 50 0 69 -22 115 -60 122 -234 206 -356 172z"/>
<path d="M4770 8590 c-506 -39 -945 -158 -1375 -373 -485 -242 -895 -580
-1237 -1019 -402 -515 -644 -1109 -730 -1788 -18 -142 -18 -658 0 -805 54
-437 170 -831 354 -1200 178 -356 364 -619 633 -894 407 -416 821 -687 1350
-886 236 -89 509 -156 780 -192 164 -22 675 -25 835 -5 447 56 812 159 1186
337 684 325 1284 909 1627 1582 277 545 400 1052 400 1653 0 782 -225 1476
-686 2122 -102 143 -331 400 -457 514 -302 271 -515 417 -850 583 -406 201
-788 314 -1224 361 -139 15 -470 20 -606 10z m610 -45 c463 -53 981 -219 1355
-434 162 -93 375 -237 500 -337 138 -112 415 -386 527 -524 423 -521 683
-1130 775 -1820 26 -192 26 -702 0 -875 -74 -499 -242 -986 -467 -1360 -267
-442 -620 -825 -1012 -1098 -520 -363 -1062 -565 -1708 -638 -171 -20 -604
-17 -762 4 -524 70 -1034 247 -1431 496 -391 245 -736 554 -977 876 -407 544
-638 1120 -722 1805 -17 138 -17 592 0 730 70 571 239 1057 527 1518 317 507
752 920 1294 1231 386 220 873 369 1396 425 182 19 538 20 705 1z"/>
<path d="M5275 8253 c-584 -46 -940 -121 -1250 -261 -49 -22 -139 -58 -200
-80 -240 -86 -372 -153 -675 -344 -159 -100 -224 -148 -290 -212 -47 -46 -120
-109 -163 -141 -53 -39 -97 -83 -135 -134 -31 -42 -93 -114 -137 -161 -93 -97
-128 -146 -248 -353 -103 -174 -165 -296 -200 -392 -45 -126 -168 -509 -182
-570 -42 -182 -64 -597 -46 -865 22 -333 23 -337 139 -720 106 -348 145 -442
289 -697 113 -202 133 -230 190 -281 36 -31 95 -97 133 -147 37 -49 99 -117
136 -150 38 -33 107 -98 154 -145 47 -47 137 -121 199 -165 63 -44 135 -99
161 -122 26 -24 108 -74 181 -111 74 -38 213 -110 309 -160 232 -121 452 -189
740 -232 472 -69 517 -73 744 -60 341 18 560 44 766 90 276 63 344 84 470 149
63 32 180 86 260 120 169 71 281 132 353 194 29 24 85 65 125 91 108 69 426
336 506 424 93 104 214 267 266 360 24 43 70 119 102 170 122 190 171 333 252
730 33 160 36 187 36 349 0 165 -2 186 -36 337 -106 480 -180 711 -254 791
-15 17 -55 82 -90 145 -81 150 -155 262 -216 330 -28 30 -72 87 -98 127 -57
87 -151 185 -203 212 -21 10 -55 37 -75 59 -37 40 -427 296 -524 345 -261 131
-621 233 -1029 291 l-150 21 -6 140 c-4 77 -7 341 -8 588 l-1 447 -127 -2
c-71 -1 -146 -3 -168 -5z m-19 -1168 c10 -69 1 -90 -53 -115 -43 -20 -237 -70
-274 -70 -20 0 -39 85 -39 172 l0 58 179 0 180 0 7 -45z m774 -226 c145 -33
262 -70 332 -105 37 -19 102 -48 144 -64 107 -43 149 -66 193 -105 21 -19 57
-41 79 -49 65 -23 106 -56 219 -175 58 -62 117 -118 132 -125 17 -9 55 -62
105 -147 44 -74 97 -157 118 -185 74 -100 154 -315 146 -396 l-3 -33 -255 0
c-323 0 -1859 23 -2046 31 -78 3 -146 9 -153 13 -20 13 -81 250 -90 351 -5 52
-18 120 -29 150 -12 31 -24 91 -28 134 l-7 78 59 -7 c32 -4 93 -15 134 -25 41
-10 116 -23 165 -29 50 -6 200 -25 335 -43 239 -31 254 -32 625 -32 361 0 388
1 550 26 207 32 328 71 333 107 4 23 2 23 -50 18 -29 -3 -86 -15 -125 -26
-125 -35 -260 -44 -623 -45 -345 0 -726 11 -716 22 3 3 113 9 245 13 432 14
877 68 1029 125 36 13 42 20 42 43 0 27 -1 28 -37 21 -21 -4 -78 -19 -128 -33
-214 -62 -457 -86 -932 -94 -260 -4 -353 -3 -353 6 0 6 3 11 8 11 4 0 124 7
267 15 282 16 475 35 684 65 125 19 141 24 233 72 89 47 122 78 104 96 -9 8
-91 -11 -151 -36 -134 -55 -259 -84 -445 -103 -328 -32 -937 -59 -1372 -59
l-177 0 -6 -47 c-31 -229 -65 -385 -126 -566 -27 -81 -49 -154 -49 -162 0 -7
-12 -23 -26 -34 -22 -17 -41 -21 -110 -21 -45 0 -86 -4 -89 -10 -12 -20 -33
-10 -46 23 -23 53 -16 187 15 299 35 128 120 339 164 408 91 143 169 228 294
321 84 62 319 187 417 220 70 25 274 64 436 84 303 38 414 38 565 4z m-1829
-132 c74 -88 93 -125 75 -152 -7 -10 -55 -50 -107 -88 -154 -112 -138 -104
-156 -76 -9 13 -52 60 -95 105 -43 44 -78 86 -78 92 0 6 12 19 28 29 15 9 55
39 88 65 80 63 144 99 169 96 10 -2 45 -33 76 -71z m-649 -557 c59 -6 120 -15
134 -20 25 -10 26 -14 21 -54 -4 -24 -22 -80 -42 -124 -52 -118 -113 -309
-136 -420 -38 -190 -35 -573 6 -814 41 -234 147 -533 243 -682 220 -341 386
-509 672 -676 61 -36 132 -80 158 -97 63 -44 151 -90 243 -127 42 -17 76 -35
75 -41 -1 -6 -72 -10 -191 -10 -129 -1 -206 -5 -240 -14 -63 -18 -148 -54
-184 -81 l-29 -20 -7 -172 c-3 -95 -3 -211 2 -258 l8 -84 41 -9 42 -8 4 -120
c3 -86 8 -123 18 -129 24 -15 118 -22 201 -14 72 6 82 9 91 30 15 33 63 33 72
1 5 -22 12 -24 97 -30 157 -12 172 -10 217 23 l42 30 0 114 c0 81 -4 117 -12
123 -7 4 -49 10 -92 13 l-79 5 26 31 c15 17 39 37 55 43 l29 12 7 221 c4 122
11 229 17 240 13 25 31 23 156 -16 59 -18 158 -46 220 -61 l112 -27 7 -45 c7
-47 -4 -896 -12 -924 -7 -26 -171 -33 -324 -14 -254 31 -520 87 -715 151 -143
47 -339 141 -407 196 -29 24 -103 79 -164 121 -76 54 -168 134 -294 257 -100
98 -196 184 -212 191 -24 10 -39 9 -86 -6 -31 -9 -75 -18 -97 -19 -36 -1 -41
2 -55 33 -14 32 -56 116 -132 261 -17 32 -30 74 -31 100 l-2 43 85 22 c81 20
85 22 88 50 2 16 -2 56 -8 90 -15 75 -95 325 -113 349 -11 15 -38 19 -184 27
-188 10 -217 16 -229 51 -9 27 -7 228 4 308 l7 55 50 13 c35 9 84 11 161 6
l111 -6 11 178 c13 193 14 339 4 419 l-7 50 -55 8 c-130 18 -170 29 -170 47 0
48 101 338 118 341 4 1 54 4 112 8 l105 6 6 117 c4 65 9 124 12 131 3 8 22 17
42 20 62 10 65 16 65 147 0 130 3 124 -72 135 -69 10 -71 14 -52 71 28 86 106
224 128 229 70 15 180 17 308 5z m1318 -750 c24 -13 32 -90 24 -231 l-7 -117
-93 -7 c-51 -4 -100 -5 -108 -2 -28 11 -41 258 -17 329 11 32 17 37 49 41 47
6 131 -2 152 -13z m-566 -12 c29 -140 9 -348 -32 -348 -17 0 -112 300 -112
353 0 14 10 17 70 17 64 0 70 -2 74 -22z m278 0 c18 -32 18 -312 0 -330 -8 -8
-43 -13 -100 -13 l-87 0 -3 177 c-3 203 -13 185 105 187 65 1 74 -1 85 -21z
m579 1 c24 -39 24 -308 0 -332 -7 -7 -48 -14 -93 -17 l-80 -5 -17 30 c-17 32
-21 167 -7 277 7 51 10 57 34 61 50 9 154 0 163 -14z m287 5 c22 -4 22 -6 22
-173 0 -195 9 -180 -115 -188 -119 -7 -120 -7 -120 159 0 73 4 150 8 170 8 36
9 37 60 40 54 3 106 0 145 -8z m248 6 c31 0 37 -4 51 -37 12 -31 14 -63 10
-163 -3 -69 -8 -132 -12 -141 -5 -12 -26 -18 -83 -23 -119 -11 -112 -22 -112
180 0 193 -7 172 65 187 11 3 26 3 33 1 8 -2 29 -4 48 -4z m338 -6 c23 -9 24
-342 1 -350 -9 -4 -56 -7 -107 -8 l-91 -1 -14 40 c-11 29 -14 74 -11 169 5
156 4 156 124 156 45 0 89 -3 98 -6z m265 0 l31 -6 0 -163 c0 -192 2 -188
-106 -193 -72 -4 -72 -4 -88 26 -12 24 -16 63 -16 171 0 133 1 141 22 155 23
17 100 21 157 10z m312 -4 c18 -10 19 -23 19 -175 0 -159 -1 -165 -22 -176
-24 -13 -172 -19 -183 -7 -15 15 -25 90 -25 204 0 129 6 149 50 157 50 9 142
7 161 -3z m287 -176 l2 -172 -31 -11 c-53 -18 -126 -14 -149 9 -32 32 -41 98
-29 215 15 139 12 136 116 133 l88 -3 3 -171z m306 129 c9 -59 7 -286 -4 -303
-12 -19 -164 -21 -197 -2 -22 12 -23 18 -23 155 0 201 -8 187 115 187 l102 0
7 -37z m291 -78 c7 -103 2 -184 -12 -220 -7 -19 -144 -31 -172 -16 -20 11 -21
18 -21 181 l0 170 99 0 99 0 7 -115z m-2951 -297 c-3 -7 -25 -29 -49 -48 -24
-19 -54 -54 -67 -77 -12 -24 -29 -45 -35 -48 -23 -8 -93 125 -93 177 0 4 56 8
125 8 96 0 123 -3 119 -12z m1174 4 c9 -6 -2 -27 -43 -78 -106 -132 -105 -129
-105 -426 0 -288 2 -283 -68 -255 -20 8 -78 22 -127 31 -50 9 -100 18 -111 21
-21 5 -21 7 -17 207 4 164 2 216 -11 271 -20 85 -56 157 -96 191 -17 14 -28
30 -25 36 8 12 584 14 603 2z m1146 -9 c14 -8 8 -19 -42 -70 -67 -69 -74 -88
-98 -258 -22 -152 -25 -472 -6 -527 13 -35 16 -38 53 -38 l39 0 0 218 c0 255
14 447 34 496 8 19 33 55 56 80 58 63 114 81 255 81 134 0 198 -19 263 -79 72
-66 84 -105 92 -291 4 -88 10 -167 14 -176 9 -20 -32 -147 -75 -231 -17 -33
-67 -107 -112 -164 -72 -90 -84 -101 -94 -86 -7 8 -13 37 -13 63 l0 46 -107
49 c-59 27 -136 66 -171 87 -35 21 -70 36 -77 33 -19 -7 -29 -101 -17 -164 11
-62 28 -63 -163 10 -78 30 -148 51 -175 52 l-45 1 -6 -103 c-6 -121 -14 -133
-85 -135 -77 -2 -101 8 -114 48 -12 35 -15 37 -112 59 l-28 6 0 190 0 189 33
25 c32 25 119 67 165 81 21 6 22 4 22 -62 0 -71 17 -113 46 -113 26 0 36 52
41 211 5 123 2 171 -11 230 -22 101 -57 171 -100 204 -20 15 -34 30 -32 33 23
22 532 27 570 5z m-1932 -7 c42 -8 99 -26 127 -41 41 -23 53 -37 75 -84 38
-86 42 -121 38 -329 -3 -159 -7 -194 -19 -199 -21 -8 -155 26 -175 44 -24 22
-23 35 7 63 54 50 54 126 0 196 -37 48 -73 64 -148 64 -79 0 -142 -21 -184
-62 -17 -16 -35 -29 -40 -27 -18 7 -162 124 -162 132 -1 4 14 30 32 57 17 27
41 64 52 82 35 58 173 113 290 116 17 1 65 -5 107 -12z m2653 -10 c14 -15 26
-41 30 -71 8 -50 0 -171 -14 -220 -10 -35 -14 -27 -31 65 -13 73 -46 143 -90
193 -16 19 -30 37 -30 40 0 3 12 8 28 10 64 10 83 7 107 -17z m-1492 0 c107
-18 169 -46 197 -90 24 -40 25 -46 5 -46 -12 0 -15 -16 -15 -81 0 -44 -5 -89
-11 -101 -23 -43 -124 -62 -167 -32 -13 9 -41 44 -63 79 -43 68 -55 75 -135
75 -49 0 -53 -2 -79 -40 -26 -38 -27 -44 -21 -117 3 -43 9 -98 12 -123 4 -34
-6 -88 -41 -225 -52 -198 -56 -210 -86 -225 -27 -15 -109 -2 -116 18 -8 19 25
44 49 36 10 -3 20 0 23 8 3 7 9 148 14 313 11 321 18 371 68 446 31 47 88 85
156 104 67 18 103 18 210 1z m918 -885 c78 -26 136 -57 143 -76 3 -9 6 -68 6
-130 0 -108 -1 -114 -22 -121 -12 -4 -63 -48 -113 -98 l-90 -91 -5 180 c-5
163 -7 184 -27 217 -22 37 -22 38 -3 48 12 7 22 26 26 50 7 46 11 47 85 21z
m-359 -75 c25 -7 77 -28 116 -46 l70 -32 7 -112 c3 -61 7 -160 8 -220 l2 -109
-110 -57 c-61 -31 -128 -61 -151 -67 l-40 -10 3 241 c2 133 6 283 9 334 7 104
6 103 86 78z m-657 -61 c136 -21 164 -31 172 -63 3 -14 3 -170 0 -346 -6 -290
-8 -322 -25 -338 -37 -37 -366 -98 -529 -98 l-53 0 -2 98 c-3 161 3 684 8 724
4 27 11 38 27 42 40 9 300 -3 402 -19z m469 -151 c11 -28 7 -112 -10 -213 -20
-121 -14 -179 26 -224 l28 -33 -115 -52 c-63 -29 -120 -49 -125 -46 -11 7 -3
558 8 576 3 4 45 8 94 8 71 0 89 -3 94 -16z m-1547 -760 c26 -5 38 -41 48
-144 11 -118 -27 -312 -56 -283 -5 5 -10 92 -11 193 l-3 185 -60 13 c-39 8
-113 11 -212 9 -119 -3 -153 -1 -153 9 0 13 41 21 130 27 57 4 288 -3 317 -9z
m-109 -141 c9 -24 9 -301 -1 -335 l-7 -27 -220 -3 -221 -3 -12 40 c-15 52 -14
259 2 308 l13 37 219 0 c200 0 220 -2 227 -17z m-216 -509 c5 -3 8 -27 8 -54
0 -66 -26 -85 -100 -75 l-51 7 3 61 c3 60 4 62 33 69 29 6 92 1 107 -8z m356
-6 c7 -7 12 -33 12 -60 0 -55 -15 -68 -80 -68 -46 0 -53 9 -54 77 -1 29 4 47
14 53 21 14 94 12 108 -2z"/>
<path d="M3174 4613 c4 -16 38 -80 77 -143 38 -64 69 -119 69 -123 0 -4 -25
-7 -55 -7 -47 0 -55 -3 -55 -19 0 -10 60 -90 133 -177 74 -88 156 -190 183
-229 59 -82 84 -94 84 -42 0 27 -16 56 -71 133 -73 101 -119 185 -119 217 0
15 7 16 55 11 50 -6 55 -5 55 13 0 39 -66 121 -204 255 -77 76 -145 138 -150
138 -4 0 -5 -12 -2 -27z"/>
<path d="M3504 3468 c-8 -38 -13 -44 -49 -54 -44 -12 -52 -28 -54 -107 -1 -46
1 -49 34 -63 19 -7 45 -14 59 -14 39 0 49 -47 40 -193 -4 -87 -3 -135 6 -161
l12 -36 96 -2 c126 -3 297 1 345 8 l37 6 0 152 c0 84 5 167 11 184 10 28 14
30 78 37 l68 7 6 59 c8 74 -3 107 -40 114 -54 11 -77 29 -86 68 l-9 37 -272 0
-272 0 -10 -42z m474 -14 c6 -2 12 -10 12 -19 0 -13 -25 -15 -172 -17 -198 -1
-209 -1 -222 12 -16 16 -1 22 76 30 68 7 277 3 306 -6z m29 -111 c72 -5 81 -8
71 -21 -11 -13 -53 -14 -301 -9 -159 2 -291 7 -294 10 -3 3 -2 10 2 16 7 12
384 15 522 4z m-51 -138 c14 -22 16 -45 12 -157 -4 -94 -10 -133 -19 -139 -8
-5 -78 -9 -156 -9 l-141 0 -11 30 c-29 84 -21 271 12 292 7 4 74 8 149 8 136
0 138 0 154 -25z"/>
<path d="M7085 4665 c-22 -8 -57 -33 -79 -56 -36 -39 -38 -44 -33 -89 10 -82
29 -114 83 -140 66 -32 162 -33 219 -2 80 43 105 77 105 144 0 38 -6 54 -30
82 -62 70 -169 95 -265 61z"/>
<path d="M7774 8234 c-227 -280 -229 -283 -217 -303 5 -9 28 -29 51 -45 l41
-29 23 29 c13 15 101 125 196 243 94 117 172 216 172 220 -1 7 -85 74 -99 79
-4 1 -80 -86 -167 -194z"/>
<path d="M1816 8208 l-48 -43 203 -225 c111 -124 210 -226 219 -228 16 -3 320
271 320 289 0 4 -14 24 -31 44 -39 44 -41 42 -169 -77 -52 -48 -97 -88 -100
-88 -3 0 -79 83 -169 185 -91 102 -167 185 -170 185 -4 0 -28 -19 -55 -42z"/>
<path d="M8028 8062 c-90 -81 -195 -175 -233 -209 l-69 -61 39 -44 c21 -23 42
-44 45 -46 4 -1 70 53 146 122 76 68 140 123 141 122 1 -1 -27 -98 -61 -216
l-63 -215 31 -36 c61 -70 42 -80 296 148 126 113 230 209 230 212 -1 3 -18 26
-40 50 l-38 44 -94 -80 c-51 -44 -102 -91 -113 -103 -11 -12 -37 -35 -57 -51
l-37 -30 8 28 c5 15 34 113 65 216 31 104 54 197 51 207 -8 25 -43 68 -65 80
-15 8 -45 -14 -182 -138z"/>
<path d="M1415 7758 c-49 -58 -52 -75 -19 -100 16 -13 106 -89 200 -169 209
-178 240 -202 253 -195 16 10 271 325 271 335 0 5 -19 24 -41 42 -41 32 -41
32 -58 12 -13 -16 -165 -198 -177 -212 -5 -6 -63 40 -210 170 -76 66 -150 127
-165 135 -26 13 -29 12 -54 -18z"/>
<path d="M8393 7485 c-136 -92 -252 -170 -257 -175 -6 -6 215 -349 255 -394
10 -12 100 46 95 61 -3 6 -43 71 -90 144 -47 73 -86 135 -86 138 1 11 114 80
122 75 5 -3 45 -59 89 -125 43 -65 83 -119 88 -119 4 0 27 14 50 30 49 36 52
26 -56 179 -40 57 -73 106 -73 110 0 3 24 20 53 38 l52 31 87 -131 c48 -73 93
-134 98 -135 14 -5 90 45 90 58 0 15 -245 373 -258 378 -6 2 -122 -72 -259
-163z"/>
<path d="M1213 7400 c-139 -70 -210 -223 -169 -363 22 -77 104 -165 195 -209
59 -29 75 -33 151 -33 74 0 91 3 131 27 99 58 159 155 167 269 4 57 1 75 -21
123 -55 119 -184 206 -317 214 -69 3 -80 1 -137 -28z m203 -135 c107 -47 164
-133 142 -212 -31 -113 -137 -154 -255 -99 -142 67 -184 190 -96 287 56 62
109 68 209 24z"/>
<path d="M8737 6961 c-152 -70 -279 -130 -282 -133 -5 -5 180 -416 193 -430
10 -10 102 32 102 47 0 6 -21 54 -46 106 -25 52 -57 118 -70 147 l-23 53 62
30 c34 16 67 29 72 29 6 0 37 -59 70 -131 33 -72 65 -133 72 -136 16 -6 93 35
93 50 0 6 -27 70 -60 141 -33 71 -59 130 -58 131 2 2 27 15 56 29 l53 27 64
-137 c36 -75 65 -140 65 -145 0 -19 23 -19 65 0 28 12 45 26 45 37 0 10 -40
102 -90 205 -49 103 -90 192 -90 198 0 6 -3 11 -7 11 -5 0 -133 -58 -286 -129z"/>
<path d="M910 6767 c-53 -17 -124 -93 -145 -156 -24 -74 -22 -166 5 -225 30
-62 116 -139 188 -167 44 -17 78 -23 147 -23 79 0 97 3 142 27 91 47 143 138
143 252 0 85 -21 137 -75 183 l-37 33 -30 -28 c-16 -15 -36 -41 -44 -56 -14
-27 -14 -29 11 -48 106 -84 49 -229 -91 -229 -110 0 -233 73 -254 151 -9 33
-8 46 9 83 22 50 49 71 104 80 25 5 37 12 38 24 0 9 4 38 8 65 l8 47 -46 -1
c-25 -1 -62 -6 -81 -12z"/>
<path d="M9085 6421 c-293 -89 -394 -122 -401 -132 -9 -15 16 -110 31 -116 7
-2 65 11 128 30 l115 34 10 -40 c6 -23 7 -49 2 -61 -5 -11 -45 -67 -89 -124
-49 -62 -81 -112 -81 -126 0 -39 32 -126 46 -126 19 0 155 167 178 218 l19 43
19 -30 c24 -37 92 -71 143 -71 50 0 119 34 146 72 43 60 35 138 -38 366 -26
82 -40 112 -52 111 -9 0 -88 -22 -176 -48z m144 -183 c25 -87 27 -135 4 -160
-21 -23 -75 -23 -96 0 -20 22 -69 160 -65 182 3 12 88 46 124 49 6 1 21 -32
33 -71z"/>
<path d="M1056 5783 c-21 -104 -21 -100 21 -107 21 -4 50 -9 64 -12 25 -5 27
-2 33 43 4 26 9 55 12 64 3 13 -5 18 -33 23 -21 4 -50 9 -65 12 -22 4 -27 1
-32 -23z"/>
<path d="M9128 5745 c-130 -23 -251 -47 -270 -51 l-33 -9 8 -62 c8 -55 11 -63
30 -63 26 0 397 63 515 87 90 19 87 15 76 97 l-7 46 -41 -1 c-22 0 -147 -20
-278 -44z"/>
<path d="M651 5576 c-42 -15 -107 -69 -125 -105 -20 -37 -43 -165 -51 -282
l-7 -96 58 -6 c163 -17 565 -49 569 -46 2 3 9 55 16 117 16 153 9 247 -22 303
-30 54 -100 103 -169 118 -67 14 -226 13 -269 -3z m251 -137 c82 -21 110 -75
100 -194 -5 -65 -5 -66 -31 -61 -14 3 -93 10 -176 16 -207 15 -195 11 -195 67
0 97 39 161 110 182 37 11 130 6 192 -10z"/>
<path d="M8958 5453 l-78 -4 0 -59 0 -60 192 -2 192 -3 -95 -59 c-52 -33 -136
-86 -186 -119 l-93 -59 0 -71 0 -70 152 6 c83 4 225 7 315 7 l163 0 0 63 0 63
-197 -4 c-109 -2 -196 -2 -193 1 3 3 89 59 190 125 l185 119 3 66 3 67 -238
-2 c-131 -1 -273 -4 -315 -5z"/>
<path d="M980 4860 c0 -54 2 -60 23 -66 13 -3 41 -4 63 -2 l39 3 3 63 3 62
-66 0 -65 0 0 -60z"/>
<path d="M9071 4790 c-99 -21 -178 -96 -208 -199 -11 -38 -14 -83 -11 -155 4
-114 25 -172 69 -193 32 -15 226 -40 236 -30 10 11 32 154 32 215 1 57 1 57
-65 66 l-42 6 -7 -71 -7 -71 -37 7 c-43 8 -47 14 -62 82 -29 129 73 226 219
209 129 -15 209 -104 188 -208 -9 -47 -31 -75 -76 -98 -37 -19 -40 -23 -40
-63 0 -23 3 -53 7 -66 5 -21 10 -23 45 -18 76 10 154 98 178 199 17 68 8 173
-18 223 -50 97 -158 162 -283 170 -41 2 -94 0 -118 -5z"/>
<path d="M1040 4701 c-45 -8 -47 -22 -20 -186 11 -70 19 -129 18 -130 -2 -1
-115 -17 -252 -36 l-248 -33 6 -65 c4 -36 8 -66 9 -67 3 -3 611 79 616 83 5 3
-46 395 -55 426 -6 18 -15 19 -74 8z"/>
<path d="M7270 1745 c-30 -14 -97 -54 -148 -87 -69 -45 -91 -65 -87 -77 14
-37 301 -470 312 -471 21 0 218 136 255 178 20 22 42 60 48 83 25 92 -19 223
-102 308 -88 88 -183 111 -278 66z m148 -125 c73 -53 135 -185 112 -240 -11
-28 -112 -110 -134 -110 -12 1 -196 281 -196 299 0 15 122 81 151 81 14 0 45
-13 67 -30z"/>
<path d="M2753 1593 c-309 -219 -392 -279 -392 -285 -1 -13 81 -68 102 -68 10
0 42 16 69 36 l49 36 87 -58 c48 -32 88 -59 89 -59 1 0 -4 -30 -11 -67 -12
-64 -12 -68 8 -87 26 -23 86 -54 93 -48 4 5 123 591 123 608 0 3 -10 11 -22
17 -13 6 -37 20 -54 32 l-31 20 -110 -77z"/>
<path d="M3155 1363 c-97 -202 -183 -389 -189 -409 -6 -19 1 -24 49 -44 31
-12 58 -21 60 -19 2 3 26 53 54 112 l50 107 88 -41 c48 -22 91 -44 95 -48 5
-4 -8 -40 -28 -81 -20 -41 -42 -92 -50 -112 l-13 -38 47 -20 c25 -11 53 -19
60 -18 15 3 241 480 242 509 0 17 -92 65 -106 56 -5 -3 -27 -46 -49 -97 -46
-104 -35 -101 -159 -45 -88 40 -87 33 -30 147 19 37 34 74 34 83 0 15 -68 55
-94 55 -9 0 -33 -39 -61 -97z"/>
<path d="M6697 1419 c-21 -11 -41 -27 -44 -35 -5 -13 53 -569 63 -602 2 -9 19
-4 60 15 l56 28 -4 70 -3 69 85 48 c47 26 92 47 101 48 8 0 30 -15 48 -34 18
-19 42 -36 52 -39 19 -5 119 40 119 54 0 19 -457 399 -479 399 -9 -1 -33 -10
-54 -21z"/>
<path d="M6245 1246 c-86 -21 -275 -90 -275 -101 0 -14 168 -517 178 -533 7
-10 23 -8 78 9 114 35 267 99 293 122 82 75 63 211 -36 258 -26 12 -49 23 -50
24 -1 0 4 19 12 41 22 64 -1 136 -54 167 -39 22 -90 27 -146 13z m79 -128 c23
-32 20 -54 -10 -77 -24 -19 -152 -67 -158 -60 -9 12 -35 103 -30 108 11 11
129 49 156 50 17 1 33 -7 42 -21z m99 -220 c41 -49 7 -90 -107 -130 -43 -15
-78 -23 -81 -18 -9 14 -45 123 -43 125 2 2 32 12 68 23 36 12 72 23 80 26 25
8 64 -4 83 -26z"/>
<path d="M3642 974 c-45 -151 -80 -279 -77 -283 7 -13 97 -33 105 -24 4 4 29
78 55 163 26 85 50 157 53 160 2 3 2 -79 -2 -181 l-7 -186 58 -17 c46 -13 60
-14 66 -4 4 7 53 87 107 178 55 90 100 161 100 158 0 -4 -25 -85 -55 -179 -30
-94 -55 -177 -55 -184 0 -20 100 -51 110 -35 11 18 151 476 157 515 l5 32 -70
22 c-39 11 -77 21 -86 21 -20 0 -47 -38 -136 -187 -40 -68 -74 -123 -76 -123
-2 0 -1 85 3 189 l6 188 -74 22 c-41 12 -81 24 -89 26 -12 4 -33 -55 -98 -271z"/>
<path d="M5610 1087 l-34 -12 -60 -297 c-33 -163 -57 -300 -54 -303 6 -6 117
11 125 19 2 2 9 33 15 69 l11 64 98 17 c54 9 103 16 108 16 5 0 25 -25 43 -55
23 -38 39 -55 53 -55 28 1 105 16 111 23 3 3 -55 102 -128 220 -73 119 -145
236 -160 261 -24 40 -32 46 -60 45 -18 0 -49 -5 -68 -12z"/>
<path d="M4350 1081 c0 -5 -13 -100 -30 -212 -16 -112 -33 -238 -36 -279 l-7
-76 199 -27 c110 -15 209 -27 220 -27 18 0 23 8 29 46 3 25 4 48 1 51 -3 3
-73 15 -156 26 l-152 21 7 71 c4 38 8 71 9 72 1 1 62 -7 135 -19 96 -15 135
-18 143 -10 6 6 12 30 12 54 l1 43 -65 11 c-36 7 -98 16 -137 19 l-73 7 6 57
c4 31 8 58 10 60 2 2 69 -6 149 -19 79 -13 147 -21 151 -17 11 11 17 94 7 100
-13 8 -349 57 -390 57 -18 0 -33 -4 -33 -9z"/>
<path d="M4861 1031 c-11 -7 -12 -44 -7 -197 4 -104 9 -234 12 -288 l6 -99
132 6 c198 9 271 39 317 134 21 41 24 62 23 153 0 87 -4 114 -23 157 -28 63
-85 118 -138 132 -45 13 -302 14 -322 2z m313 -130 c16 -15 29 -43 37 -80 12
-60 7 -168 -11 -201 -16 -30 -59 -48 -136 -55 l-71 -7 -6 137 c-4 76 -7 160
-7 188 l0 49 84 -3 c72 -3 88 -7 110 -28z"/>
</g>
</svg>
